HIERARCHY
ROOT Hips
{
	OFFSET 0.00 0.00 0.00
	CHANNELS 6 Xposition Yposition Zposition Xrotation Yrotation Zrotation
	JOINT Spine
	{
		OFFSET 0.00000 1.66264 2.49395
		CHANNELS 3 Xrotation Yrotation Zrotation
		JOINT Spine1
		{
			OFFSET 0.00000 0.57743 3.27475
			CHANNELS 3 Xrotation Yrotation Zrotation
			JOINT Spine2
			{
				OFFSET 0.00000 0.28982 3.31262
				CHANNELS 3 Xrotation Yrotation Zrotation
				JOINT Spine3
				{
					OFFSET 0.00000 0.00000 3.32527
					CHANNELS 3 Xrotation Yrotation Zrotation
					JOINT Neck
					{
						OFFSET 0.00000 -1.24697 8.72884
						CHANNELS 3 Xrotation Yrotation Zrotation
						JOINT Head
						{
							OFFSET 0.00000 -0.79396 4.50279
							CHANNELS 3 Xrotation Yrotation Zrotation
							End Site
							{
								OFFSET 0.00000 0.00001 5.38279
							}
						}
					}
					JOINT RightShoulder
					{
						OFFSET -1.14808 -1.91346 6.19963
						CHANNELS 3 Xrotation Yrotation Zrotation
						JOINT RightArm
						{
							OFFSET -5.70212 0.00000 0.00000
							CHANNELS 3 Xrotation Yrotation Zrotation
							JOINT RightForeArm
							{
								OFFSET -10.82477 0.00000 0.00000
								CHANNELS 3 Xrotation Yrotation Zrotation
								JOINT RightHand
								{
									OFFSET -10.02856 0.00000 0.00000
									CHANNELS 3 Xrotation Yrotation Zrotation
									JOINT RightHandEnd
									{
										OFFSET -2.68345 0.00000 0.00000
										CHANNELS 3 Xrotation Yrotation Zrotation
										End Site
										{
											OFFSET -2.68345 0.00000 0.00000
										}
									}
									JOINT RightHandThumb1
									{
										OFFSET -1.07338 -1.78897 -0.71559
										CHANNELS 3 Yrotation Xrotation Zrotation
										End Site
										{
											OFFSET -2.59202 -0.69453 0.00000
										}
									}
								}
							}
						}
					}
					JOINT LeftShoulder
					{
						OFFSET 1.14808 -1.91346 6.19963
						CHANNELS 3 Xrotation Yrotation Zrotation
						JOINT LeftArm
						{
							OFFSET 5.70212 0.00000 0.00000
							CHANNELS 3 Xrotation Yrotation Zrotation
							JOINT LeftForeArm
							{
								OFFSET 10.82477 0.00000 0.00000
								CHANNELS 3 Xrotation Yrotation Zrotation
								JOINT LeftHand
								{
									OFFSET 10.02856 0.00000 0.00000
									CHANNELS 3 Xrotation Yrotation Zrotation
									JOINT LeftHandEnd
									{
										OFFSET 2.68345 0.00000 0.00000
										CHANNELS 3 Xrotation Yrotation Zrotation
										End Site
										{
											OFFSET 2.68345 0.00000 0.00000
										}
									}
									JOINT LeftHandThumb1
									{
										OFFSET 1.07338 -1.78897 -0.71559
										CHANNELS 3 Yrotation Xrotation Zrotation
										End Site
										{
											OFFSET 2.59202 -0.69453 0.00000
										}
									}
								}
							}
						}
					}
				}
			}
		}
	}
	JOINT RightUpLeg
	{
		OFFSET -3.40597 0.00000 -0.99500
		CHANNELS 3 Xrotation Yrotation Zrotation
		JOINT RightLeg
		{
			OFFSET 0.00001 0.00000 -17.05191
			CHANNELS 3 Xrotation Yrotation Zrotation
			JOINT RightFoot
			{
				OFFSET 0.00001 0.00000 -15.93260
				CHANNELS 3 Xrotation Yrotation Zrotation
				JOINT RightToeBase
				{
					OFFSET 0.00000 -4.98016 -1.81263
					CHANNELS 3 Xrotation Yrotation Zrotation
					End Site
					{
						OFFSET 0.00000 -2.75539 -0.00000
					}
				}
			}
		}
	}
	JOINT LeftUpLeg
	{
		OFFSET 3.40597 0.00000 -0.99500
		CHANNELS 3 Xrotation Yrotation Zrotation
		JOINT LeftLeg
		{
			OFFSET 0.00001 0.00000 -17.05191
			CHANNELS 3 Xrotation Yrotation Zrotation
			JOINT LeftFoot
			{
				OFFSET 0.00001 0.00000 -15.93260
				CHANNELS 3 Xrotation Yrotation Zrotation
				JOINT LeftToeBase
				{
					OFFSET 0.00000 -4.98016 -1.81263
					CHANNELS 3 Xrotation Yrotation Zrotation
					End Site
					{
						OFFSET 0.00000 -2.75539 -0.00000
					}
				}
			}
		}
	}
}
MOTION
Frames: 12
Frame Time: 0.008342
 3.9155 -112.0126 35.0049 -2.0783 -0.0674 -177.8393 -1.7971 -0.0351 -0.1267 -0.6501 -0.2322 0.0082 -1.4459 -0.4976 0.8068 -0.1487 -0.2149 0.2178 4.2814 -0.3972 -0.6009 -3.6482 1.8087 -1.6911 -2.2229 14.9111 1.3967 -24.6569 -16.3923 -11.1251 0.0000 0.0000 18.4025 -11.1138 25.2916 4.2085 0.0000 -0.0000 -0.0000 -0.0000 -0.0000 -0.0000 4.7820 -13.6926 1.9749 -10.4348 19.3906 -4.3233 -0.0000 -0.0000 -14.7499 -12.7794 -34.5235 -5.2250 0.0000 -0.0000 -0.0000 0.0000 -0.0000 0.0000 -2.2103 0.6903 -31.7605 1.2753 0.0000 0.0000 -7.6794 -6.6395 -7.4447 0.2718 0.0000 0.0000 -0.1501 -1.5198 23.8455 -1.7433 0.0000 -0.0000 -4.4154 15.4977 9.7713 0.2237 0.0000 0.0000
 3.9146 -112.0164 35.0051 -2.0747 -0.0681 -177.8433 -1.7906 -0.0345 -0.1280 -0.6468 -0.2348 0.0091 -1.4551 -0.4960 0.8115 -0.1493 -0.2159 0.2194 4.2920 -0.4045 -0.5900 -3.6432 1.8123 -1.6716 -2.2227 14.9216 1.4079 -24.6501 -16.3865 -11.1193 0.0000 0.0000 18.4048 -11.1148 25.2957 4.2119 0.0000 -0.0000 0.0000 0.0000 -0.0000 -0.0000 4.7787 -13.6979 1.9684 -10.4291 19.3765 -4.3241 -0.0000 -0.0000 -14.7500 -12.7408 -34.5371 -5.1929 -0.0000 -0.0000 0.0000 -0.0000 0.0000 -0.0000 -2.2123 0.6907 -31.7638 1.2729 0.0000 0.0000 -7.6723 -6.6444 -7.4378 0.2791 0.0000 0.0000 -0.1506 -1.5184 23.8482 -1.7471 0.0000 -0.0000 -4.4089 15.4963 9.7720 0.2190 0.0000 0.0000
 3.9134 -112.0215 35.0055 -2.0704 -0.0688 -177.8479 -1.7835 -0.0341 -0.1289 -0.6423 -0.2368 0.0095 -1.4643 -0.4944 0.8172 -0.1515 -0.2176 0.2207 4.3061 -0.4122 -0.5753 -3.6398 1.8166 -1.6448 -2.2231 14.9381 1.4230 -24.6423 -16.3805 -11.1151 0.0000 0.0000 18.4114 -11.1131 25.3003 4.2168 -0.0000 0.0000 -0.0000 0.0000 -0.0000 -0.0000 4.7750 -13.7046 1.9618 -10.4237 19.3592 -4.3247 -0.0000 -0.0000 -14.7534 -12.7216 -34.5443 -5.1775 -0.0000 -0.0000 -0.0000 -0.0000 -0.0000 -0.0000 -2.2156 0.6920 -31.7685 1.2703 0.0000 0.0000 -7.6630 -6.6511 -7.4289 0.2900 0.0000 0.0000 -0.1515 -1.5160 23.8534 -1.7526 0.0000 -0.0000 -4.3991 15.4959 9.7705 0.2138 0.0000 0.0000
 3.9119 -112.0277 35.0058 -2.0652 -0.0691 -177.8531 -1.7754 -0.0336 -0.1296 -0.6365 -0.2383 0.0097 -1.4741 -0.4934 0.8238 -0.1544 -0.2200 0.2220 4.3231 -0.4204 -0.5562 -3.6397 1.8217 -1.6099 -2.2246 14.9593 1.4395 -24.6296 -16.3739 -11.1065 0.0000 0.0000 18.4189 -11.1101 25.3077 4.2255 0.0000 -0.0000 -0.0000 0.0000 -0.0000 -0.0000 4.7715 -13.7125 1.9566 -10.4183 19.3386 -4.3272 -0.0000 -0.0000 -14.7600 -12.7244 -34.5457 -5.1778 -0.0000 0.0000 0.0000 0.0000 -0.0000 0.0000 -2.2204 0.6944 -31.7726 1.2686 0.0000 0.0000 -7.6522 -6.6594 -7.4196 0.3037 0.0000 0.0000 -0.1533 -1.5128 23.8583 -1.7586 0.0000 -0.0000 -4.3877 15.4964 9.7698 0.2090 0.0000 0.0000
 3.9100 -112.0351 35.0063 -2.0593 -0.0690 -177.8587 -1.7664 -0.0328 -0.1300 -0.6296 -0.2395 0.0094 -1.4840 -0.4927 0.8310 -0.1582 -0.2229 0.2235 4.3429 -0.4286 -0.5330 -3.6437 1.8279 -1.5669 -2.2260 14.9850 1.4567 -24.6134 -16.3666 -11.0945 0.0000 0.0000 18.4286 -11.1052 25.3188 4.2366 -0.0000 0.0000 -0.0000 0.0000 -0.0000 -0.0000 4.7679 -13.7214 1.9532 -10.4152 19.3161 -4.3311 -0.0000 -0.0000 -14.7699 -12.7427 -34.5408 -5.1915 0.0000 -0.0000 -0.0000 0.0000 0.0000 0.0000 -2.2267 0.6982 -31.7767 1.2677 0.0000 0.0000 -7.6399 -6.6694 -7.4095 0.3199 0.0000 0.0000 -0.1559 -1.5084 23.8634 -1.7652 0.0000 -0.0000 -4.3744 15.4981 9.7694 0.2043 0.0000 0.0000
 3.9079 -112.0435 35.0067 -2.0532 -0.0685 -177.8645 -1.7559 -0.0319 -0.1307 -0.6219 -0.2402 0.0093 -1.4957 -0.4927 0.8381 -0.1613 -0.2261 0.2255 4.3643 -0.4371 -0.5064 -3.6519 1.8346 -1.5157 -2.2282 15.0141 1.4734 -24.5934 -16.3581 -11.0788 0.0000 0.0000 18.4409 -11.0982 25.3326 4.2519 0.0000 -0.0000 -0.0000 -0.0000 0.0000 -0.0000 4.7653 -13.7317 1.9519 -10.4169 19.2928 -4.3350 -0.0000 -0.0000 -14.7842 -12.7832 -34.5292 -5.2215 -0.0000 -0.0000 -0.0000 0.0000 -0.0000 -0.0000 -2.2342 0.7030 -31.7804 1.2666 0.0000 0.0000 -7.6256 -6.6810 -7.3992 0.3372 0.0000 0.0000 -0.1594 -1.5031 23.8686 -1.7723 0.0000 -0.0000 -4.3593 15.5009 9.7689 0.2009 0.0000 0.0000
 3.9055 -112.0527 35.0072 -2.0476 -0.0655 -177.8707 -1.7424 -0.0300 -0.1304 -0.6147 -0.2402 0.0081 -1.5112 -0.4929 0.8466 -0.1626 -0.2294 0.2277 4.3862 -0.4448 -0.4761 -3.6638 1.8419 -1.4583 -2.2306 15.0463 1.4874 -24.5706 -16.3493 -11.0595 0.0000 0.0000 18.4572 -11.0878 25.3502 4.2676 -0.0000 0.0000 -0.0000 -0.0000 -0.0000 -0.0000 4.7628 -13.7424 1.9530 -10.4222 19.2694 -4.3399 -0.0000 -0.0000 -14.8025 -12.8400 -34.5118 -5.2628 -0.0000 -0.0000 -0.0000 0.0000 -0.0000 0.0000 -2.2446 0.7115 -31.7835 1.2673 0.0000 0.0000 -7.6108 -6.6925 -7.3885 0.3544 0.0000 0.0000 -0.1645 -1.4944 23.8727 -1.7804 0.0000 -0.0000 -4.3423 15.5058 9.7702 0.1989 0.0000 0.0000
 3.9030 -112.0624 35.0078 -2.0416 -0.0641 -177.8758 -1.7313 -0.0288 -0.1312 -0.6050 -0.2403 0.0085 -1.5233 -0.4937 0.8532 -0.1660 -0.2334 0.2303 4.4092 -0.4520 -0.4423 -3.6814 1.8494 -1.3943 -2.2337 15.0797 1.5013 -24.5448 -16.3377 -11.0390 0.0000 0.0000 18.4770 -11.0730 25.3708 4.2847 -0.0000 0.0000 0.0000 0.0000 -0.0000 0.0000 4.7605 -13.7537 1.9551 -10.4323 19.2465 -4.3436 -0.0000 -0.0000 -14.8242 -12.9073 -34.4906 -5.3099 -0.0000 0.0000 -0.0000 0.0000 -0.0000 0.0000 -2.2549 0.7183 -31.7855 1.2673 0.0000 0.0000 -7.5940 -6.7067 -7.3798 0.3713 0.0000 0.0000 -0.1707 -1.4877 23.8767 -1.7869 0.0000 -0.0000 -4.3255 15.5105 9.7702 0.1983 0.0000 0.0000
 3.9005 -112.0723 35.0083 -2.0344 -0.0635 -177.8797 -1.7204 -0.0282 -0.1325 -0.5936 -0.2408 0.0093 -1.5340 -0.4948 0.8592 -0.1702 -0.2378 0.2330 4.4325 -0.4585 -0.4053 -3.7039 1.8573 -1.3262 -2.2385 15.1141 1.5139 -24.5158 -16.3243 -11.0178 0.0000 0.0000 18.5008 -11.0564 25.3944 4.3020 -0.0000 0.0000 -0.0000 0.0000 -0.0000 -0.0000 4.7585 -13.7654 1.9580 -10.4471 19.2253 -4.3460 -0.0000 -0.0000 -14.8487 -12.9844 -34.4661 -5.3615 -0.0000 -0.0000 -0.0000 0.0000 -0.0000 0.0000 -2.2641 0.7242 -31.7873 1.2667 0.0000 0.0000 -7.5754 -6.7225 -7.3723 0.3863 0.0000 0.0000 -0.1769 -1.4819 23.8807 -1.7924 0.0000 -0.0000 -4.3089 15.5154 9.7692 0.1992 0.0000 0.0000
 3.8977 -112.0825 35.0088 -2.0277 -0.0607 -177.8838 -1.7068 -0.0269 -0.1330 -0.5836 -0.2406 0.0093 -1.5476 -0.4953 0.8663 -0.1721 -0.2425 0.2360 4.4549 -0.4653 -0.3663 -3.7299 1.8675 -1.2536 -2.2418 15.1490 1.5221 -24.4887 -16.3102 -10.9961 0.0000 0.0000 18.5295 -11.0325 25.4197 4.3156 0.0000 -0.0000 -0.0000 -0.0000 0.0000 0.0000 4.7559 -13.7763 1.9615 -10.4659 19.2060 -4.3479 -0.0000 -0.0000 -14.8748 -13.0584 -34.4416 -5.4093 -0.0000 0.0000 -0.0000 0.0000 0.0000 0.0000 -2.2751 0.7333 -31.7871 1.2681 0.0000 0.0000 -7.5574 -6.7370 -7.3661 0.3976 0.0000 0.0000 -0.1838 -1.4734 23.8830 -1.7976 0.0000 -0.0000 -4.2921 15.5210 9.7703 0.2019 0.0000 0.0000
 3.8949 -112.0925 35.0092 -2.0209 -0.0576 -177.8873 -1.6943 -0.0258 -0.1336 -0.5729 -0.2406 0.0094 -1.5594 -0.4957 0.8734 -0.1750 -0.2475 0.2388 4.4772 -0.4717 -0.3246 -3.7590 1.8787 -1.1789 -2.2454 15.1834 1.5288 -24.4626 -16.2944 -10.9762 0.0000 0.0000 18.5623 -11.0056 25.4461 4.3281 0.0000 -0.0000 -0.0000 -0.0000 -0.0000 0.0000 4.7539 -13.7869 1.9643 -10.4875 19.1889 -4.3480 -0.0000 -0.0000 -14.9013 -13.1291 -34.4194 -5.4511 -0.0000 -0.0000 0.0000 -0.0000 -0.0000 0.0000 -2.2860 0.7428 -31.7850 1.2701 0.0000 0.0000 -7.5392 -6.7514 -7.3623 0.4055 0.0000 0.0000 -0.1914 -1.4650 23.8847 -1.8012 0.0000 -0.0000 -4.2763 15.5263 9.7713 0.2061 0.0000 0.0000
 3.8921 -112.1024 35.0097 -2.0143 -0.0539 -177.8906 -1.6823 -0.0248 -0.1340 -0.5625 -0.2407 0.0096 -1.5705 -0.4957 0.8812 -0.1775 -0.2526 0.2415 4.4987 -0.4782 -0.2809 -3.7893 1.8916 -1.1024 -2.2481 15.2169 1.5333 -24.4403 -16.2773 -10.9589 0.0000 0.0000 18.5988 -10.9764 25.4713 4.3388 -0.0000 0.0000 0.0000 0.0000 0.0000 0.0000 4.7520 -13.7967 1.9655 -10.5109 19.1742 -4.3466 -0.0000 -0.0000 -14.9267 -13.1925 -34.4007 -5.4866 -0.0000 0.0000 0.0000 -0.0000 -0.0000 -0.0000 -2.2972 0.7532 -31.7813 1.2732 0.0000 0.0000 -7.5212 -6.7651 -7.3604 0.4092 0.0000 0.0000 -0.1995 -1.4561 23.8859 -1.8035 0.0000 -0.0000 -4.2612 15.5312 9.7724 0.2111 0.0000 0.0000
